<?xml version="1.0" encoding="utf-8"?>
<!-- Generator: Adobe Illustrator 18.0.0, SVG Export Plug-In . SVG Version: 6.00 Build 0)  -->
<!DOCTYPE svg PUBLIC "-//W3C//DTD SVG 1.1//EN" "http://www.w3.org/Graphics/SVG/1.1/DTD/svg11.dtd">
<svg version="1.1" id="Capa_1" xmlns="http://www.w3.org/2000/svg" xmlns:xlink="http://www.w3.org/1999/xlink" x="0px" y="0px"
	 viewBox="0 0 51.9 51.9" enable-background="new 0 0 51.9 51.9" xml:space="preserve">
<g>
	<g>
		<g>
			<path d="M21.4,10.7h-0.7c-0.8,0-1.5,0.6-1.5,1.4v5.8h3.7v-5.8C22.9,11.3,22.2,10.7,21.4,10.7z"/>
			<path d="M31.2,10.7h-0.7c-0.8,0-1.5,0.6-1.5,1.4v5.8h3.7v-5.8C32.7,11.3,32.1,10.7,31.2,10.7z"/>
			<path d="M26,0.6c-14.3,0-26,11.6-26,26c0,6.9,2.7,13.4,7.6,18.3c2.9,2.9,6.5,5.1,10.3,6.4c0.3,0.1,0.5,0.1,0.8,0.1
				c1.1,0,2-0.7,2.4-1.7c0.4-1.3-0.3-2.7-1.6-3.2c-3.1-1-6-2.8-8.3-5.1C7.2,37.4,5,32.1,5,26.5c0-11.6,9.4-21,21-21s21,9.4,21,21
				c0,5.6-2.2,10.9-6.1,14.8c-1.5,1.4-5.3,4.1-7.5,4.1c-1.2,0-2-0.4-2.7-1.2c-1.8-2-2.2-6-2.2-8.8c4.3-0.2,7.8-3.8,7.8-8.2v-7.8
				H15.8v7.8c0,4.3,3.3,7.8,7.5,8.2c0,3.3,0.4,8.8,3.4,12.2c1.7,1.8,3.9,2.8,6.5,2.8c4.8,0,10.3-4.9,11-5.4l0.1-0.1
				c4.9-4.9,7.6-11.4,7.6-18.4C51.9,12.2,40.3,0.6,26,0.6z"/>
		</g>
	</g>
</g>
</svg>
